<svg xmlns="http://www.w3.org/2000/svg" xmlns:xlink="http://www.w3.org/1999/xlink" version="1.1" x="0px" y="0px" viewBox="0 0 56 70" enable-background="new 0 0 56 56" xml:space="preserve"><path d="M39.3,37.8l-22.5,5.6v-9.9l22.5-5.6V37.8z M39.3,41.4L16.8,47v2.7c0,1.6,1.3,2.9,2.9,2.9h5.5v-2.8c0-1.6,1.3-2.9,2.9-2.9  c1.6,0,2.9,1.3,2.9,2.9v2.8h5.5c1.6,0,2.9-1.3,2.9-2.9L39.3,41.4z M28,12.3c-0.6,0-1,0.5-1,1c0,0.6,0.5,1,1,1c0.6,0,1-0.5,1-1  C29.1,12.8,28.6,12.3,28,12.3z M40.9,13.3c3.1,0,11.2,0,11.2,11.2l0,10.9c0,1.5-1.7,2.8-3.3,2.8c-1.5,0-3.7-1.2-3.8-2.6c0,0,0,0,0,0  c0.8,0,1.5-0.7,1.5-1.5c0-0.8-0.7-1.5-1.5-1.5c0,0,0,0,0,0l0-8c0-1.6-1.3-2.8-2.8-2.8c-1.6,0-2.8,1.3-2.8,2.8l-22.5,5.6v-5.6  c0-1.6-1.3-2.8-2.8-2.8c-1.6,0-2.8,1.3-2.8,2.8l0,8c0,0,0,0,0,0c-0.8,0-1.5,0.7-1.5,1.5c0,0.8,0.7,1.5,1.5,1.5c0,0,0,0,0,0  c-0.1,1.5-2.2,2.6-3.6,2.6c-1.5,0-3.5-1.2-3.5-2.8v-11c0-11.1,7.9-11.1,11-11.1l1.8,0c0-6.2,5-11.2,11.2-11.2  c6.2,0,11.2,5,11.2,11.2L40.9,13.3z M29.1,18c0-0.6-0.5-1-1-1c-0.6,0-1,0.5-1,1c0,0.6,0.5,1,1,1C28.6,19,29.1,18.5,29.1,18z   M30.8,13.3c0-1.5-1.2-2.8-2.8-2.8c-1.5,0-2.8,1.3-2.8,2.8s1.3,2.8,2.8,2.8C29.6,16.1,30.8,14.9,30.8,13.3z"/><text x="0" y="71" fill="#000000" font-size="5px" font-weight="bold" font-family="'Helvetica Neue', Helvetica, Arial-Unicode, Arial, Sans-serif">Created by Mike Hince</text><text x="0" y="76" fill="#000000" font-size="5px" font-weight="bold" font-family="'Helvetica Neue', Helvetica, Arial-Unicode, Arial, Sans-serif">from the Noun Project</text></svg>